<svg xmlns="http://www.w3.org/2000/svg" x="0px" y="0px" viewBox="0 0 180 180" fill="#ffffff"><g><path fill="#ffffff" d="M14,90c0-19,0-38.1,0-57.1c0-12.1,10.7-20.8,22.5-18.4c11,2.2,18.7,17.7,10.5,28.7c-2.5,3.3-5.6,6-8.4,9.1 C32.5,59.2,28.5,67,28.2,76.4c-0.7,18.6,12.2,34.3,30.5,37.5c8.2,1.4,16,0.6,23.4-3.4c1.2-0.6,1.5-0.4,1.5,0.9 c-0.1,3.1,0,6.2,0,9.2c0,3.8,2.5,6.5,5.9,6.5c3.6,0,6.2-2.7,6.2-6.6c0-6.6,0-13.1,0-19.7c0-1.2,0.3-2.1,1.2-2.9 c2.4-2.2,4.6-4.4,7-6.6c7.7-6.9,18.6-5.6,24.3,3c3.5,5.3,2.8,13.3-1.7,17.9c-4.3,4.4-8.6,8.8-12.9,13.2 c-11.3,11.5-22.6,22.9-33.8,34.4c-4.1,4.2-9.1,6.2-15,6.2c-10.6,0-21.1,0-31.7,0c-8.5,0-15.7-5.3-18.1-13.2 c-0.6-1.9-0.9-3.8-0.9-5.8C14,127.9,14,109,14,90z"/><path fill="#ffffff" d="M95.7,70.6c0-3.6,0-7.1,0-10.6c0-0.9,0-1.7-0.3-2.6c-0.9-3-3.7-4.9-6.6-4.5c-3,0.4-5.2,2.9-5.3,6 c0,7,0,13.9,0,20.9c0,1.1-0.2,1.9-1,2.6c-2.4,2.3-4.6,4.7-7.1,7c-5.5,5-15,4.8-20.9-0.4c-5.7-5-6.6-13.5-2-19.9 c2.4-3.4,5.6-6.2,8.5-9.2c11.6-11.8,23.3-23.5,35-35.2c2-2.1,4.2-4,6.3-6c3.2-3.1,7-4.5,11.3-4.5c11.4-0.1,22.8-0.1,34.1,0 c10.7,0.1,18.8,9.4,18.2,20.2c-0.4,7.8-0.2,15.7-0.3,23.5c-0.4,27.9,0,55.8-0.2,83.8c0,3.3,0.3,6.6-0.3,9.9 c-1.6,7.9-7.9,13.5-16.2,14.5c-7.1,0.8-14.7-3.7-17.8-10.6c-3.1-6.9-2.5-13.4,2.4-19.2c2.9-3.4,6.3-6.5,9.3-9.9 c9.2-10.6,11.5-22.8,6.9-36C145,77,135.5,68.5,121.3,66c-8.4-1.5-16.3,0.6-23.8,4.2c-0.4,0.2-0.8,0.4-1.2,0.6 C96.2,70.7,96.1,70.6,95.7,70.6z"/></g></svg>